<svg xmlns="http://www.w3.org/2000/svg" viewBox="0 0 396 236"><defs><style>.cls-1{isolation:isolate;}.cls-2{fill:#6cb2e7;}.cls-16,.cls-3{mix-blend-mode:multiply;}.cls-16,.cls-4{fill:#91e9f8;}.cls-5{fill:#fff;}.cls-6{fill:#44d3cf;}.cls-7{fill:#ffe66c;}.cls-12,.cls-13,.cls-14,.cls-8{fill:none;}.cls-9{mix-blend-mode:overlay;}.cls-10{fill:#64d3cc;}.cls-11{opacity:0.39;}.cls-12,.cls-14{stroke:#33f;}.cls-12,.cls-13,.cls-14{stroke-miterlimit:10;}.cls-13{stroke:#fff;}.cls-13,.cls-14{stroke-width:2px;}.cls-15{fill:#33f;}</style></defs><title>Artboard 66</title><g class="cls-1"><g id="images"><rect class="cls-2" width="396" height="236"/><g class="cls-3"><path class="cls-4" d="M239.59,137.54c2,.21,3.48,0,4.28.58.6.47.75,2.33.31,3.12a2,2,0,0,1-3.47.29C240.08,140.79,240.1,139.49,239.59,137.54Z"/><path class="cls-4" d="M345.24,96.37c.19,1.76.75,3.14.29,3.81s-2,.76-3,1.1c-.34-1.21-1-2.47-.87-3.63C341.7,97.19,343.54,96.94,345.24,96.37Z"/><path class="cls-4" d="M297.33,127.23c-2.34,0-4,.56-4.69,0s-.84-2.45-.49-3.5c.18-.53,2.35-1,3-.6C296,123.67,296.31,125.15,297.33,127.23Z"/><path class="cls-4" d="M265.86,127.75c-.47-3.29,1.49-3.81,2.78-4.68a1.64,1.64,0,0,1,1.7,2.78A28.3,28.3,0,0,1,265.86,127.75Z"/><path class="cls-4" d="M261.65,157.4c-.19,1.72.06,3.2-.53,3.75a3.32,3.32,0,0,1-3.13.34,2,2,0,0,1-.26-3.51C258.47,157.4,259.85,157.63,261.65,157.4Z"/><path class="cls-4" d="M241.15,164.22c0,1.74.33,3.06-.16,3.85a2,2,0,0,1-3.44.18,3.28,3.28,0,0,1-.08-3.07C238,164.52,239.46,164.61,241.15,164.22Z"/><path class="cls-4" d="M276.33,47.56c1.76.11,3.09-.19,3.86.33a2,2,0,0,1,.13,3.43,3.24,3.24,0,0,1-3.07-.11C276.6,50.68,276.7,49.24,276.33,47.56Z"/><path class="cls-4" d="M222.54,194.41c0,1.89.45,3.33-.08,4s-2,.56-3.12.79c-.19-1.09-.85-2.43-.45-3.19S220.79,195.1,222.54,194.41Z"/><path class="cls-4" d="M390.69,69.49c0,1.85.44,3.31-.1,3.91a3.09,3.09,0,0,1-3,.48,3.13,3.13,0,0,1-.56-3C387.39,70.14,388.93,70.08,390.69,69.49Z"/><path class="cls-4" d="M209.05,54.82c0,1.88.34,3.14-.12,3.91-.34.58-2.26,1-2.54.68a3.48,3.48,0,0,1-.83-2.93C205.86,55.78,207.33,55.58,209.05,54.82Z"/><path class="cls-4" d="M206.52,53c-2-.25-3.22-.08-4-.64a2.65,2.65,0,0,1-.06-2.62,2.68,2.68,0,0,1,2.58-.48C205.78,49.87,205.87,51.15,206.52,53Z"/><path class="cls-4" d="M205,135.14c.13-1.46-.12-2.73.38-3.22a2.6,2.6,0,0,1,2.59-.18,2.66,2.66,0,0,1,.21,2.63C207.74,134.93,206.43,134.83,205,135.14Z"/><path class="cls-4" d="M189.05,85.18c-.28,1.39-.26,2.94-.68,3.07-.9.29-2-.17-3.06-.33.2-.89.12-2.12.67-2.57S187.73,85.21,189.05,85.18Z"/><path class="cls-4" d="M307.48,60.76c1.45,0,2.65-.43,3.21,0a2.57,2.57,0,0,1,.52,2.51,2.63,2.63,0,0,1-2.55.55C308,63.46,308,62.16,307.48,60.76Z"/><path class="cls-4" d="M365.55,53c-1.24.11-2.25.5-2.72.16a2.25,2.25,0,0,1-.55-2.14,2.21,2.21,0,0,1,2.14-.55C364.94,50.73,365.06,51.82,365.55,53Z"/><path class="cls-4" d="M365.67,12.17c.1,1.26.48,2.27.13,2.72s-1.43.47-2.19.67c-.18-.76-.71-1.68-.45-2.22S364.47,12.68,365.67,12.17Z"/><path class="cls-4" d="M342.73,41.14c1.22.08,2.57-.08,2.68.22a7.31,7.31,0,0,1,0,2.68c-.79-.06-1.84.16-2.29-.26S342.86,42.31,342.73,41.14Z"/><path class="cls-4" d="M367.81,166c-.07,1.26.17,2.31-.24,2.72s-1.47.25-2.24.34c-.06-.77-.42-1.74-.08-2.24S366.62,166.31,367.81,166Z"/><path class="cls-4" d="M308.77,222.51c-1.16,0-2.38.34-2.6,0a6.25,6.25,0,0,1-.39-2.55c.76,0,1.74-.32,2.22.05S308.47,221.41,308.77,222.51Z"/><path class="cls-4" d="M256,212.54c.14-1.2,0-2.22.38-2.61s1.43-.17,2.18-.22c0,.75.33,1.72,0,2.2S257.19,212.28,256,212.54Z"/><path class="cls-4" d="M297.29,77.15c-.06,1.22.18,2.25-.22,2.64s-1.44.24-2.2.32c-.06-.75-.42-1.7-.09-2.19S296.13,77.47,297.29,77.15Z"/><path class="cls-4" d="M363.58,152c1.2,0,2.47-.24,2.64.08a7.1,7.1,0,0,1,.27,2.65c-.78,0-1.81.28-2.29-.11S363.82,153.14,363.58,152Z"/><path class="cls-4" d="M352.41,77.53c0,1.24.37,2.23,0,2.67s-1.4.38-2.15.53c-.12-.74-.56-1.66-.27-2.18S351.3,78,352.41,77.53Z"/><path class="cls-4" d="M224.42,17.26c.15,1.38.57,2.43.23,2.82a2.71,2.71,0,0,1-2.2.42c-.25,0-.64-1.37-.4-1.75C222.41,18.19,223.27,17.94,224.42,17.26Z"/><path class="cls-4" d="M346.41,85.69c-.44,1.21-.52,2.24-1,2.51a2.11,2.11,0,0,1-2.07-.37,2.11,2.11,0,0,1,.35-2.08C344.12,85.38,345.12,85.68,346.41,85.69Z"/><path class="cls-4" d="M308.68,103.41c-.19,1.2-.07,2.23-.5,2.58s-1.45.14-2.21.17c0-.76-.35-1.77,0-2.22S307.4,103.62,308.68,103.41Z"/><path class="cls-4" d="M259.85,95.48c-.11,1.26.09,2.31-.32,2.67a2.58,2.58,0,0,1-2.16,0,2,2,0,0,1-.08-1.76C257.76,95.91,258.65,95.86,259.85,95.48Z"/><path class="cls-4" d="M313.23,120.07c-.36,1.3-.34,2.22-.78,2.56s-1.44.32-2.18.44c-.06-.63-.38-1.42-.11-1.84S311.27,120.76,313.23,120.07Z"/><path class="cls-4" d="M239.25,42.35c-1,.21-2,.58-2.15.39a7,7,0,0,1-.62-2.09c.61-.08,1.33-.39,1.8-.17S238.82,41.47,239.25,42.35Z"/><path class="cls-4" d="M270.71,4.94c0,1.29.24,2.33-.14,2.68a2.54,2.54,0,0,1-2.13.1c-.25-.08-.47-1.37-.21-1.67C268.67,5.56,269.51,5.44,270.71,4.94Z"/><path class="cls-4" d="M348.76,123.48c0,1,.18,1.87-.14,2.21s-1.2.25-1.83.34c-.09-.64-.45-1.45-.19-1.88S347.74,123.76,348.76,123.48Z"/><path class="cls-4" d="M359.38,142.26c0,1,.16,2.14-.06,2.22a6.49,6.49,0,0,1-2.22.12c0-.61-.13-1.4.2-1.79S358.42,142.49,359.38,142.26Z"/><path class="cls-4" d="M334.15,192c-.64-.25-1.49-.34-1.88-.81a5.41,5.41,0,0,1-.61-2.06c.62-.09,1.36-.43,1.81-.2s.55,1,.81,1.58C334.24,191,334.19,191.51,334.15,192Z"/><path class="cls-4" d="M332.05,232.57c.1,1.1.41,1.91.13,2.27s-1.15.38-1.76.54c-.15-.61-.57-1.33-.38-1.79S331.07,233,332.05,232.57Z"/><path class="cls-4" d="M355.94,233.48c1.05.09,2.13,0,2.2.23a6.77,6.77,0,0,1,0,2.2c-.6-.09-1.37,0-1.74-.33S356.12,234.47,355.94,233.48Z"/><path class="cls-4" d="M289.6,17.68c.1,1,.41,1.73.15,2.1s-1.09.48-1.67.7a7.39,7.39,0,0,1-.51-2.15C287.57,18.13,288.65,18,289.6,17.68Z"/><path class="cls-4" d="M291.15,34.67c-1.83-.28-2.68-.16-3-.51a1.75,1.75,0,0,1,0-1.73,1.79,1.79,0,0,1,1.73-.08C290.4,32.66,290.55,33.46,291.15,34.67Z"/><path class="cls-4" d="M211.74,178.93c0,1,.31,1.7,0,2.09s-1,.49-1.58.72a6.83,6.83,0,0,1-.5-2.1C209.72,179.41,210.77,179.25,211.74,178.93Z"/><path class="cls-4" d="M238.05,67.6c-1.28-.32-2.17-.28-2.49-.69s-.32-1.37-.45-2.08c.61,0,1.36-.34,1.79-.09S237.36,65.79,238.05,67.6Z"/><path class="cls-4" d="M238.63,148.36c-1.09.12-1.91.46-2.24.19a1.26,1.26,0,0,1,1.27-2.17C238.06,146.54,238.19,147.4,238.63,148.36Z"/><path class="cls-4" d="M199.93,112c.11,1,.4,1.71.16,2.11s-1,.57-1.54.84a6.67,6.67,0,0,1-.64-2.07C197.92,112.63,199,112.41,199.93,112Z"/><path class="cls-4" d="M298.59,88.7c.57.11,1.4,0,1.65.37a1.74,1.74,0,0,1,0,1.7,1.84,1.84,0,0,1-1.74,0c-.52-.3-.77-1-1.13-1.59Z"/><path class="cls-4" d="M326.8,83.6c-1.13.11-1.93.44-2.32.17a1.23,1.23,0,0,1,1.25-2.12C326.16,81.82,326.31,82.64,326.8,83.6Z"/><path class="cls-4" d="M270.29,164.08c0-1-.23-1.86.09-2.23a1.26,1.26,0,0,1,2,1.52C272.13,163.78,271.25,163.79,270.29,164.08Z"/><path class="cls-4" d="M318.09,136c.06,1.12.33,1.89.05,2.26s-1.09.42-1.67.6c-.16-.6-.58-1.31-.39-1.77S317.08,136.51,318.09,136Z"/><path class="cls-4" d="M322.86,132.46c0,1,.19,1.83-.11,2.16a1.71,1.71,0,0,1-1.68.16,1.65,1.65,0,0,1-.23-1.63C321.09,132.77,321.9,132.75,322.86,132.46Z"/><path class="cls-4" d="M294.51,175.86c-1,.19-2,.57-2.13.38a7.37,7.37,0,0,1-.64-2.15c.63-.08,1.38-.4,1.87-.17S294.12,175,294.51,175.86Z"/><path class="cls-4" d="M321.65,142.22c1.07-.18,2-.57,2.21-.33a6,6,0,0,1,.69,2.06c-.62.1-1.36.46-1.82.23S322.13,143.16,321.65,142.22Z"/><path class="cls-4" d="M329.59,157.3c-1,0-2.06.12-2.17-.13a6.36,6.36,0,0,1-.16-2.16c.61.05,1.39-.11,1.78.21S329.36,156.32,329.59,157.3Z"/><path class="cls-4" d="M308.23,184c0,1,.23,1.87-.08,2.17s-1.21.23-1.84.32c-.08-.64-.42-1.42-.16-1.85S307.26,184.22,308.23,184Z"/><path class="cls-4" d="M354.5,130.45c-1,0-2,.15-2.15-.1a5.85,5.85,0,0,1-.11-2.15c.6,0,1.42-.18,1.75.13S354.3,129.5,354.5,130.45Z"/><path class="cls-4" d="M348.39,141.29c-1,.18-2,.54-2.11.34a7.24,7.24,0,0,1-.64-2.13c.64-.08,1.39-.4,1.88-.16S348,140.37,348.39,141.29Z"/><path class="cls-4" d="M393.69,93.47c-2.11-.37-3-.28-3.23-.63a1.81,1.81,0,0,1,0-1.76,1.86,1.86,0,0,1,1.79,0C392.73,91.35,392.93,92.14,393.69,93.47Z"/><path class="cls-4" d="M381.3,108.43c0,1,.18,1.85-.14,2.17s-1.18.25-1.81.34c-.09-.63-.44-1.43-.18-1.85S380.31,108.71,381.3,108.43Z"/><path class="cls-4" d="M324.94,99.18a7.4,7.4,0,0,1-.11,2.42,1.58,1.58,0,0,1-1.28.48c-.38-.46-.8-1.19-.66-1.65S323.85,99.81,324.94,99.18Z"/><path class="cls-4" d="M194.37,159.71c1,.2,1.85.12,2.12.47s.09,1.17.11,1.78c-.62,0-1.42.24-1.79-.05S194.55,160.79,194.37,159.71Z"/><path class="cls-4" d="M292.16,1.52a4.35,4.35,0,0,1-.55,1.64,1.39,1.39,0,0,1-1.33-.06,2.19,2.19,0,0,1-.21-1.75c.27-.56,1-.91,1.52-1.35Z"/><path class="cls-4" d="M99.35,193.52c-1.51-1.83-2.76-2.7-2.9-3.72-.11-.83,1.24-2.66,1.74-2.59,1.14.16,2.72,1,3,2S100.37,191.34,99.35,193.52Z"/><path class="cls-4" d="M96.63,92.47C95.32,91.11,94,90.37,94,89.53s1.1-1.78,1.73-2.67c.88.64,2.29,1.15,2.5,2S97.41,90.78,96.63,92.47Z"/><path class="cls-4" d="M53.07,119.23c-1.2,1.4-1.83,2.79-2.63,2.9a3.1,3.1,0,0,1-2.6-1.62,3.12,3.12,0,0,1,1.56-2.67C50.15,117.56,51.35,118.52,53.07,119.23Z"/><path class="cls-4" d="M38.52,196.94C37.27,195.57,36,194.78,36,194a3.53,3.53,0,0,1,2-2.32c.4-.18,2,1,2,1.66C40.14,194.26,39.29,195.26,38.52,196.94Z"/><path class="cls-4" d="M7.22,199.15c-1.43,1.09-2.23,2.19-3,2.19s-1.86-1-2.79-1.49c.53-.78.92-2,1.63-2.23S4.72,198.18,7.22,199.15Z"/><path class="cls-4" d="M71.47,145.57c-1.15-.9-2.35-1.38-2.46-2s.75-1.63,1.19-2.45c.83.45,2.1.74,2.37,1.42S72,144.17,71.47,145.57Z"/><path class="cls-4" d="M40.06,183.16c-.9,1.12-1.39,2.29-2.08,2.43a2.59,2.59,0,0,1-2.24-1.25A2.64,2.64,0,0,1,37,182C37.67,181.8,38.69,182.61,40.06,183.16Z"/><path class="cls-4" d="M101.6,143.27c-.89,1.15-1.36,2.35-2,2.49a2.6,2.6,0,0,1-2.23-1.3,2.53,2.53,0,0,1,1.24-2.22C99.23,142,100.24,142.76,101.6,143.27Z"/><path class="cls-4" d="M44.78,90.33c-1-.72-2-1.09-2.16-1.65a2.25,2.25,0,0,1,1-2,2.2,2.2,0,0,1,2,1C45.81,88.21,45.19,89.11,44.78,90.33Z"/><path class="cls-4" d="M69.15,29.66c-.69,1-1,2-1.61,2.14s-1.43-.52-2.15-.84a7.81,7.81,0,0,1,1.32-2.36C67,28.39,68.05,29.16,69.15,29.66Z"/><path class="cls-4" d="M38.59,164.11c1.08,1,2.24,1.61,2.27,2.27s-.94,1.52-1.48,2.28c-.74-.55-1.9-1-2.12-1.69S38,165.4,38.59,164.11Z"/><path class="cls-4" d="M71.53,59.47c-.74,1-1.11,2-1.67,2.15s-1.39-.58-2.09-.92c.35-.7.55-1.74,1.1-2S70.29,59.08,71.53,59.47Z"/><path class="cls-4" d="M35.24,66.44c.87.86,2,1.62,1.89,1.92a7.55,7.55,0,0,1-1.75,2c-.56-.57-1.5-1.08-1.57-1.7S34.58,67.42,35.24,66.44Z"/><path class="cls-4" d="M62.57,211.67c-.62,1.07-1,2.28-1.37,2.27a7.07,7.07,0,0,1-2.4-1c.4-.65.67-1.61,1.24-1.85S61.44,211.35,62.57,211.67Z"/><path class="cls-4" d="M18.83,100.33c-.78,1-1.18,1.93-1.74,2s-1.31-.63-2-1c.39-.64.66-1.62,1.21-1.83S17.7,99.93,18.83,100.33Z"/><path class="cls-4" d="M135.15,87.38c-.62.35-1.24,1-1.87,1a3.17,3.17,0,0,1-2-.88c-.17-.16.33-1.58.67-1.64a5.75,5.75,0,0,1,2.22.45Z"/><path class="cls-4" d="M9,102.6c-1.12.62-1.85,1.36-2.4,1.24a2.13,2.13,0,0,1-1.33-1.63,2.12,2.12,0,0,1,1.63-1.35C7.42,100.87,8,101.75,9,102.6Z"/><path class="cls-4" d="M122.77,134.82c-.74.67-1.18,1.39-1.64,1.41s-1.09-.57-1.64-.9a6.74,6.74,0,0,1,1.44-1.71C121.13,133.49,121.9,134.24,122.77,134.82Z"/><path class="cls-4" d="M55.75,160.82c.8.6,1.75,1.08,1.69,1.32A6.48,6.48,0,0,1,56.29,164c-.47-.4-1.21-.72-1.33-1.21S55.36,161.7,55.75,160.82Z"/><path class="cls-4" d="M83.28,154.8c.86.59,1.78,1,1.74,1.26A6.45,6.45,0,0,1,84,158c-.49-.37-1.22-.66-1.39-1.14S83,155.73,83.28,154.8Z"/><path class="cls-4" d="M94.39,194.42c.77.65,1.56,1,1.59,1.44a1.23,1.23,0,0,1-2.4.5C93.44,196,94,195.31,94.39,194.42Z"/><path class="cls-4" d="M90.28,218.47c-.83-.51-1.61-.71-1.78-1.16s.25-1.12.41-1.7a6.93,6.93,0,0,1,2,.8C91.1,216.55,90.59,217.52,90.28,218.47Z"/><path class="cls-4" d="M10.31,14c-.55.8-.82,1.58-1.26,1.69s-1.14-.35-1.72-.56a7.81,7.81,0,0,1,1-2C8.48,13,9.4,13.59,10.31,14Z"/><path class="cls-4" d="M70,7.64c-1.09.76-1.64,1.46-2.17,1.44s-1.27-.66-1.9-1c.36-.51.63-1.29,1.1-1.44S68.13,7,70,7.64Z"/><path class="cls-4" d="M107.42,37.28c.92.54,1.86.87,1.85,1.14a6.12,6.12,0,0,1-.82,2c-.5-.33-1.22-.56-1.43-1S107.2,38.26,107.42,37.28Z"/><path class="cls-4" d="M98.31,111.87c-.89-1.41-1.47-2-1.53-2.54a1.79,1.79,0,0,1,.8-1.54,1.75,1.75,0,0,1,1.54.71C99.32,108.89,98.9,109.6,98.31,111.87Z"/><path class="cls-4" d="M89.64,124c-.9-.63-1.7-.91-1.81-1.35s.46-1.08.73-1.63c.54.27,1.33.42,1.54.85S89.89,123,89.64,124Z"/><path class="cls-4" d="M39.69,139.35c-1.36-1.66-2.07-2.15-2-2.58s.71-1.32,1.15-1.35,1.21.64,1.37,1.15S40,137.85,39.69,139.35Z"/><path class="cls-4" d="M20.54,142.6c-.68.74-1.07,1.51-1.52,1.56s-1.06-.59-1.6-.93c.35-.54.6-1.37,1.08-1.52S19.61,142.16,20.54,142.6Z"/><path class="cls-4" d="M12.75,222.24c-.73-.7-1.45-1.07-1.5-1.52a1.69,1.69,0,0,1,.91-1.38,1.69,1.69,0,0,1,1.43.88C13.73,220.65,13.18,221.29,12.75,222.24Z"/><path class="cls-4" d="M22.8,3.42a4.61,4.61,0,0,1-1.49.88c-.29,0-1-.67-1-.91a2.24,2.24,0,0,1,1-1.46,5.35,5.35,0,0,1,2,0Z"/><path class="cls-4" d="M282.2,40c-2.3.56-3.63,1.31-4.61,1-.79-.26-1.86-2.27-1.58-2.69.64-1,2.1-2,3.09-1.9S280.68,38.11,282.2,40Z"/><path class="cls-4" d="M83.83,172.17c1.91-.61,3.18-1.43,4.16-1.18.74.19,1.62,1.84,1.53,2.74a2,2,0,0,1-3.07,1.64C85.58,175,85.08,173.75,83.83,172.17Z"/><path class="cls-4" d="M164.26,92.23c.87,1.54,1.94,2.58,1.78,3.38s-1.5,1.49-2.33,2.22c-.8-1-1.91-1.87-2.24-3C161.33,94.4,162.92,93.44,164.26,92.23Z"/><path class="cls-4" d="M132.65,139.65c-2.12,1-3.44,2.11-4.31,1.84s-1.76-1.91-1.85-3c0-.55,1.74-1.88,2.51-1.74C130,136.91,130.89,138.16,132.65,139.65Z"/><path class="cls-4" d="M104,152.7c-1.75-2.83-.16-4.09.67-5.4a2.2,2.2,0,0,1,2.15-.24,2.23,2.23,0,0,1,.53,2.12A30.11,30.11,0,0,1,104,152.7Z"/><path class="cls-4" d="M112,181.57c.51,1.66,1.33,2.91,1,3.65a3.35,3.35,0,0,1-2.74,1.56,2,2,0,0,1-1.64-3.11C109.07,182.84,110.43,182.49,112,181.57Z"/><path class="cls-4" d="M95.91,196c.67,1.61,1.53,2.68,1.4,3.6a2,2,0,0,1-3.08,1.54,3.25,3.25,0,0,1-1.3-2.79C93.13,197.55,94.52,197,95.91,196Z"/><path class="cls-4" d="M81.59,75c1.65-.6,2.75-1.41,3.67-1.24a2,2,0,0,1,1.49,3.09A3.25,3.25,0,0,1,83.89,78C83.08,77.76,82.6,76.39,81.59,75Z"/><path class="cls-4" d="M195.19,49.44c.74,1.69,1.72,2.86,1.47,3.62a3.09,3.09,0,0,1-2.59,1.65,3.13,3.13,0,0,1-1.73-2.56C192.42,51.35,193.8,50.68,195.19,49.44Z"/><path class="cls-4" d="M22.8,108.52c.75,1.73,1.57,2.75,1.46,3.64-.09.67-1.68,1.82-2.07,1.63a3.43,3.43,0,0,1-1.92-2.35C20.26,110.67,21.53,109.9,22.8,108.52Z"/><path class="cls-4" d="M258.89,96.27c-1.77.53-3,1.34-3.71,1A3.5,3.5,0,0,1,254,94.46c0-.43,1.75-1.35,2.37-1.12C257.18,93.65,257.71,94.84,258.89,96.27Z"/><path class="cls-4" d="M19.75,107.87c-1.88.54-3,1.21-3.87,1a2.67,2.67,0,0,1-1.1-2.38c.19-.69,1.61-1.65,2.17-1.47C17.82,105.29,18.42,106.43,19.75,107.87Z"/><path class="cls-4" d="M247.31,125.43c.36,1.76,1,2.95.65,3.67s-1.66,1.27-2.55,1.88c-.48-.82-1.39-1.7-1.3-2.44S245.35,127.25,247.31,125.43Z"/><path class="cls-4" d="M51.14,183.79c-.46-1.39-1.2-2.45-.93-3.1a2.6,2.6,0,0,1,2.3-1.21,2.66,2.66,0,0,1,1.24,2.33C53.59,182.49,52.35,182.93,51.14,183.79Z"/><path class="cls-4" d="M16.59,144.35c.3,1.38.94,2.79.6,3.09-.71.61-1.93.64-2.94.91-.17-.89-.74-2-.41-2.62S15.39,144.9,16.59,144.35Z"/><path class="cls-4" d="M226.9,44.29c-1.3.64-2.26,1.52-2.91,1.33s-1.14-1.39-1.69-2.14c.77-.55,1.57-1.56,2.3-1.52S225.88,43.19,226.9,44.29Z"/><path class="cls-4" d="M247.15,88.9c.61,1.29,1.46,2.24,1.28,2.93a2.59,2.59,0,0,1-2.1,1.47,2.63,2.63,0,0,1-1.54-2.12C244.88,90.47,246.05,89.89,247.15,88.9Z"/><path class="cls-4" d="M115.41,74.66c1.31-.62,2.26-1.45,3-1.28s1.62,1.51,1.48,2.09A2.62,2.62,0,0,1,117.72,77C117,76.92,116.42,75.75,115.41,74.66Z"/><path class="cls-4" d="M237.9,16.15c.66,1.3,1.53,2.24,1.36,2.93a2.62,2.62,0,0,1-2.15,1.44,2.53,2.53,0,0,1-1.45-2.08C235.74,17.74,236.86,17.15,237.9,16.15Z"/><path class="cls-4" d="M165.55,44.37c-1.08.59-1.85,1.36-2.42,1.23a2.23,2.23,0,0,1-1.36-1.74,2.22,2.22,0,0,1,1.74-1.36C164.09,42.52,164.64,43.48,165.55,44.37Z"/><path class="cls-4" d="M229.35,82c1.37-.53,2.41-1.32,3-1.06s1,1.51,1.42,2.32c-.82.43-1.71,1.29-2.45,1.18S230.23,83.1,229.35,82Z"/><path class="cls-4" d="M149.36,6.88C150,8,150.7,8.77,150.57,9.32s-1.13,1-1.74,1.49c-.47-.62-1.32-1.25-1.3-1.86S148.47,7.83,149.36,6.88Z"/><path class="cls-4" d="M139.9,42.6c1.14-.41,2.32-1.1,2.54-.87a7.45,7.45,0,0,1,1.08,2.46c-.75.26-1.63.88-2.21.68S140.48,43.62,139.9,42.6Z"/><path class="cls-4" d="M212.74,147c.44,1.18,1.08,2.05.87,2.59s-1.25.82-1.93,1.2c-.35-.68-1.07-1.43-1-2S211.79,147.82,212.74,147Z"/><path class="cls-4" d="M181.19,222.44c-1.05.49-2.05,1.27-2.38,1.05-.65-.43-.94-1.42-1.37-2.18.69-.32,1.47-1,2.05-.85S180.47,221.55,181.19,222.44Z"/><path class="cls-4" d="M282.6,81c.7,1,1.61,1.91,1.45,2.22-.39.72-1.29,1.16-2,1.71-.41-.64-1.16-1.3-1.13-1.92S281.82,81.87,282.6,81Z"/><path class="cls-4" d="M128.84,234.37c-.36-1.16-.92-2-.7-2.54s1.24-.73,1.91-1.08c.32.69,1,1.45.86,2S129.82,233.67,128.84,234.37Z"/><path class="cls-4" d="M112.62,93.76c.43,1.14,1.06,2,.85,2.51s-1.22.79-1.89,1.17c-.35-.66-1.06-1.4-1-2S111.68,94.51,112.62,93.76Z"/><path class="cls-4" d="M203.26,135.87c1.11-.46,2.18-1.2,2.46-1a7,7,0,0,1,1.3,2.32c-.72.31-1.54,1-2.13.82S204,136.86,203.26,135.87Z"/><path class="cls-4" d="M163.31,72.09c.53,1.12,1.22,1.91,1.07,2.45s-1.14.91-1.76,1.35c-.41-.64-1.17-1.3-1.12-1.89S162.46,72.93,163.31,72.09Z"/><path class="cls-4" d="M21.9,68c.69,1.21,1.49,2,1.33,2.5s-1.14,1.08-1.85,1.26c-.24.06-1.13-1-1.06-1.44C20.42,69.6,21.11,69,21.9,68Z"/><path class="cls-4" d="M161.06,82c.08,1.28.42,2.26.08,2.7a1.5,1.5,0,0,1-2.56-1.56C158.84,82.6,159.88,82.48,161.06,82Z"/><path class="cls-4" d="M133.55,113.28c.3,1.18.82,2.08.57,2.57s-1.27.71-2,1c-.33-.69-1-1.48-.87-2S132.46,114,133.55,113.28Z"/><path class="cls-4" d="M26.67,21.56c.55,1,1.12,1.66,1.14,2.31,0,.35-1.2,1.14-1.38,1a3.17,3.17,0,0,1-1.29-1.73C25.06,22.86,25.91,22.33,26.67,21.56Z"/><path class="cls-4" d="M85.61,125.51c.41,1.2,1,2.09.78,2.58s-1.29.83-2,.85c-.27,0-.93-1.19-.78-1.57C83.87,126.75,84.66,126.35,85.61,125.51Z"/><path class="cls-4" d="M266.19,213.7c-1,.41-1.66,1-2.11.83a1.83,1.83,0,0,1-.95-1.57,1.88,1.88,0,0,1,1.56-.94C265.16,212.09,265.52,212.91,266.19,213.7Z"/><path class="cls-4" d="M144.37,126.75c.19,1.33.57,2.17.31,2.66s-1.19.86-1.83,1.26c-.3-.55-.91-1.14-.83-1.64S142.85,128.16,144.37,126.75Z"/><path class="cls-4" d="M45.51,85c-.87.61-1.62,1.34-1.81,1.22a6.79,6.79,0,0,1-1.41-1.67c.53-.32,1.07-.89,1.58-.87S44.77,84.39,45.51,85Z"/><path class="cls-4" d="M59.41,38.17c.5,1.2,1.15,2,1,2.52s-1.22.87-1.92.94c-.26,0-1-1.07-.85-1.45C57.79,39.56,58.51,39.1,59.41,38.17Z"/><path class="cls-4" d="M233.82,65.07c.9-.46,1.74-1.11,1.93-.95A6.4,6.4,0,0,1,236.9,66c-.56.26-1.17.78-1.66.68S234.44,65.8,233.82,65.07Z"/><path class="cls-4" d="M264.15,144.24c.91-.46,1.74-1.11,2-1a5.75,5.75,0,0,1,1.13,1.81c-.54.25-1.14.79-1.6.69S264.81,145,264.15,144.24Z"/><path class="cls-4" d="M178.3,115.68c.38.95.92,1.65.76,2.08s-1,.71-1.54,1c-.34-.56-1-1.15-.93-1.65S177.49,116.35,178.3,115.68Z"/><path class="cls-4" d="M289.14,165.38c.44.87,1,1.45.91,1.93s-.77.89-1.19,1.32a7,7,0,0,1-1.38-1.74C287.4,166.68,288.35,166.08,289.14,165.38Z"/><path class="cls-4" d="M195.54,128.66c.41,1,1,1.9.84,2.06a6.76,6.76,0,0,1-2,1c-.2-.58-.68-1.24-.54-1.72S194.76,129.25,195.54,128.66Z"/><path class="cls-4" d="M192.28,184.34c-.7,0-1.51.28-2.05,0s-.94-1.07-1.39-1.64c.53-.33,1.08-.93,1.59-.9s.91.72,1.37,1.12Z"/><path class="cls-4" d="M240.34,37.65c.91-.51,1.67-1.17,1.89-1a6.23,6.23,0,0,1,1.28,1.71c-.55.28-1.12.81-1.63.75S241.05,38.35,240.34,37.65Z"/><path class="cls-4" d="M206.55,222.37c.53,1,1.14,1.59,1,2s-.91.81-1.4,1.2c-.38-.5-1.06-1-1.06-1.5S205.84,223.18,206.55,222.37Z"/><path class="cls-4" d="M228.82,213.66c1-.33,2-.85,2.11-.67a6.61,6.61,0,0,1,.86,2c-.58.15-1.25.55-1.72.39S229.38,214.5,228.82,213.66Z"/><path class="cls-4" d="M280.86,44.83c.93-.41,1.6-1,2-.81a1.76,1.76,0,0,1,.85,1.5,1.71,1.71,0,0,1-1.44.89C281.83,46.36,281.49,45.59,280.86,44.83Z"/><path class="cls-4" d="M300.74,59c-.81.53-1.33,1.14-1.81,1.11s-.9-.72-1.35-1.12a6.8,6.8,0,0,1,1.59-1.46C299.37,57.41,300,58.28,300.74,59Z"/><path class="cls-4" d="M286.26,196.64a10.1,10.1,0,0,1-2.76.19c-.51-.14-.9-.73-1.34-1.12a6.07,6.07,0,0,1,1.61-1.38C284,194.24,284.61,195.08,286.26,196.64Z"/><path class="cls-4" d="M81.82,42.31c.47.84,1.06,1.42,1,1.87s-.81.87-1.26,1.3a7.67,7.67,0,0,1-1.33-1.77C80.14,43.53,81.06,43,81.82,42.31Z"/><path class="cls-4" d="M90,57.27c-1.79.47-2.53.91-2.92.71a1.74,1.74,0,0,1-.67-1.59A1.75,1.75,0,0,1,88,55.63C88.54,55.72,89,56.39,90,57.27Z"/><path class="cls-4" d="M74.83,221.24c.43.86,1,1.43.88,1.89s-.75.87-1.16,1.29a6.73,6.73,0,0,1-1.3-1.72C73.17,222.48,74.07,221.92,74.83,221.24Z"/><path class="cls-4" d="M54.49,108.66c-1.3.22-2.1.61-2.56.37s-.84-1.13-1.24-1.74c.54-.29,1.11-.85,1.61-.79S53.14,107.28,54.49,108.66Z"/><path class="cls-4" d="M87.27,182.47c-.94.55-1.56,1.18-2,1.07a1.83,1.83,0,0,1-1.08-1.41c0-.43.88-1.07,1.38-1.09S86.49,181.76,87.27,182.47Z"/><path class="cls-4" d="M37.28,164.59c.49.87,1,1.41,1,1.87s-.7.93-1.08,1.38a6.39,6.39,0,0,1-1.42-1.64C35.68,166,36.54,165.35,37.28,164.59Z"/><path class="cls-4" d="M118.42,103.83c.57-.13,1.3-.54,1.66-.32a1.73,1.73,0,0,1,.7,1.55,1.86,1.86,0,0,1-1.59.73c-.59-.07-1.11-.65-1.67-1Z"/><path class="cls-4" d="M142.24,87.89c-1,.56-1.59,1.17-2.05,1.08a1.73,1.73,0,0,1-1.06-1.38c0-.42.87-1,1.36-1.06S141.42,87.21,142.24,87.89Z"/><path class="cls-4" d="M122.57,184.24c-.39-.93-.95-1.61-.8-2.08a1.26,1.26,0,0,1,2.46.58C124.15,183.23,123.34,183.59,122.57,184.24Z"/><path class="cls-4" d="M155.19,139.4c.5,1,1.05,1.61.95,2s-.84.83-1.29,1.23c-.39-.49-1.06-1-1.07-1.47S154.46,140.28,155.19,139.4Z"/><path class="cls-4" d="M158.14,134.26c.39.94.91,1.6.77,2a1.7,1.7,0,0,1-1.48.82,1.66,1.66,0,0,1-.86-1.4C156.64,135.25,157.39,134.91,158.14,134.26Z"/><path class="cls-4" d="M149.48,185.37c-.84.58-1.61,1.32-1.8,1.2a7.16,7.16,0,0,1-1.44-1.72c.55-.32,1.11-.92,1.65-.9S148.77,184.7,149.48,185.37Z"/><path class="cls-4" d="M160.93,143.69c.91-.59,1.63-1.32,1.9-1.18.6.3,1,1.05,1.45,1.61-.52.34-1.06,1-1.57.94S161.75,144.36,160.93,143.69Z"/><path class="cls-4" d="M208.18,5.49c-1.65.19-2.39.48-3,.28a1.83,1.83,0,0,1-1-1.39A1.74,1.74,0,0,1,205.5,3.3C205.94,3.28,206.4,4,208.18,5.49Z"/><path class="cls-4" d="M174.24,154.34c-1,.38-1.85.93-2,.75a6.26,6.26,0,0,1-1-1.92c.58-.2,1.23-.65,1.71-.52S173.63,153.53,174.24,154.34Z"/><path class="cls-4" d="M165.3,187.3c.39.93.95,1.63.79,2s-1,.7-1.56,1c-.33-.55-.95-1.13-.89-1.63S164.51,187.94,165.3,187.3Z"/><path class="cls-4" d="M186.35,119.78c-.89.36-1.8,1-2,.77a5.82,5.82,0,0,1-1-1.93c.57-.22,1.23-.73,1.66-.58S185.79,119,186.35,119.78Z"/><path class="cls-4" d="M185.08,132.16c-.85.56-1.6,1.28-1.8,1.15a7.28,7.28,0,0,1-1.44-1.7c.56-.32,1.12-.92,1.66-.89S184.36,131.47,185.08,132.16Z"/><path class="cls-4" d="M215.37,18.57c-1,.54-1.56,1.14-2,1s-.78-.87-1.15-1.36c.48-.36.95-1,1.43-1S214.56,17.9,215.37,18.57Z"/><path class="cls-4" d="M207.51,70.23c-2.08.5-2.83.93-3.2.71a1.79,1.79,0,0,1-.72-1.61,1.87,1.87,0,0,1,1.62-.75C205.79,68.67,206.28,69.31,207.51,70.23Z"/><path class="cls-4" d="M202.13,88.89c.37.93.9,1.62.74,2s-1,.7-1.52,1c-.34-.54-1-1.13-.91-1.62S201.33,89.54,202.13,88.89Z"/><path class="cls-4" d="M146.77,102.91a8,8,0,0,1,.87,2.27c0,.35-.84,1-1,.95-.52-.27-1.2-.77-1.25-1.24S146,103.93,146.77,102.91Z"/><path class="cls-4" d="M270.51,130.46c-.95.35-1.59.84-2,.69a1.66,1.66,0,0,1-.85-1.41,1.7,1.7,0,0,1,1.42-.92C269.5,128.89,269.84,129.66,270.51,130.46Z"/><path class="cls-4" d="M51.22,210.55c1-.23,1.76-.63,2.14-.41s.55,1,.81,1.58c-.56.25-1.2.79-1.66.67S51.83,211.47,51.22,210.55Z"/><path class="cls-4" d="M77.71,26.47a4.49,4.49,0,0,1,.15,1.72c-.09.29-1,.64-1.24.48a2.21,2.21,0,0,1-.89-1.52,5.41,5.41,0,0,1,.86-1.85Z"/></g><path class="cls-5" d="M316.12,44.1A24.05,24.05,0,0,0,337.86,9.76l-40,25.89A24,24,0,0,0,316.12,44.1Z"/><path class="cls-6" d="M352.68.16,351.39,1A40.08,40.08,0,0,1,284.3,44.41L260,60.13,356.2,92.19l30.68-92Z"/><path class="cls-7" d="M302.6.16H281.33a40,40,0,0,0,3,44.25l13.53-8.76A24,24,0,0,1,302.6.16Z"/><path class="cls-7" d="M329.62.16a24.18,24.18,0,0,1,8.24,9.6L351.39,1c-.15-.29-.33-.56-.49-.84Z"/><path class="cls-8" d="M298.76,237.16h15A15.64,15.64,0,0,0,298.76,237.16Z"/><path class="cls-8" d="M348.78,237.16h15A15.64,15.64,0,0,0,348.78,237.16Z"/><path class="cls-8" d="M56.9,4.68a15.65,15.65,0,0,0,17.42,0L80.83.34a2.82,2.82,0,0,1,.29-.18h-31c.09.06.19.11.28.18Z"/><path class="cls-8" d="M.37.34,6.88,4.68a15.65,15.65,0,0,0,17.42,0L30.81.34A2.82,2.82,0,0,1,31.1.16H0v0A.91.91,0,0,1,.37.34Z"/><g class="cls-9"><path class="cls-10" d="M5.8,145.69a17.62,17.62,0,0,0,19.58,0l6.51-4.34a15.65,15.65,0,0,1,17.42,0l6.51,4.34a17.6,17.6,0,0,0,19.57,0l6.52-4.34a15.65,15.65,0,0,1,17.42,0,1,1,0,0,0,1.34-.27,1,1,0,0,0-.27-1.35,17.6,17.6,0,0,0-19.57,0l-6.51,4.34a15.65,15.65,0,0,1-17.42,0l-6.52-4.34a17.6,17.6,0,0,0-19.57,0l-6.51,4.34a15.65,15.65,0,0,1-17.42,0L.37,139.73a1,1,0,0,0-.37-.14v2.23Z"/><path class="cls-10" d="M5.8,135.73a17.57,17.57,0,0,0,19.58,0l6.51-4.34a15.65,15.65,0,0,1,17.42,0l6.51,4.34a17.57,17.57,0,0,0,19.57,0l6.52-4.34a15.67,15.67,0,0,1,17.42,0,1,1,0,0,0,1.07-1.61,17.57,17.57,0,0,0-19.57,0l-6.51,4.34a15.69,15.69,0,0,1-17.42,0l-6.52-4.34a17.57,17.57,0,0,0-19.57,0l-6.51,4.34a15.67,15.67,0,0,1-17.42,0L.37,129.78a.91.91,0,0,0-.37-.15v2.24Z"/><path class="cls-10" d="M5.8,125.78a17.62,17.62,0,0,0,19.58,0l6.51-4.34a15.65,15.65,0,0,1,17.42,0l6.51,4.34a17.6,17.6,0,0,0,19.57,0l6.52-4.34a15.65,15.65,0,0,1,17.42,0,1,1,0,0,0,1.07-1.62,17.6,17.6,0,0,0-19.57,0l-6.51,4.34a15.65,15.65,0,0,1-17.42,0l-6.52-4.34a17.6,17.6,0,0,0-19.57,0l-6.51,4.34a15.65,15.65,0,0,1-17.42,0L.37,119.82a1.07,1.07,0,0,0-.37-.15v2.24Z"/><path class="cls-10" d="M5.8,115.82a17.62,17.62,0,0,0,19.58,0l6.51-4.34a15.65,15.65,0,0,1,17.42,0l6.51,4.34a17.6,17.6,0,0,0,19.57,0l6.52-4.34a15.65,15.65,0,0,1,17.42,0,1,1,0,0,0,1.34-.27,1,1,0,0,0-.27-1.35,17.6,17.6,0,0,0-19.57,0l-6.51,4.34a15.65,15.65,0,0,1-17.42,0l-6.51-4.34a17.62,17.62,0,0,0-19.58,0L24.3,114.2a15.65,15.65,0,0,1-17.42,0L.37,109.86a1,1,0,0,0-.37-.14V112Z"/><path class="cls-10" d="M5.8,105.86a17.57,17.57,0,0,0,19.58,0l6.51-4.34a15.65,15.65,0,0,1,17.42,0l6.51,4.34a17.57,17.57,0,0,0,19.57,0l6.52-4.34a15.65,15.65,0,0,1,17.42,0,1,1,0,0,0,1.34-.27,1,1,0,0,0-.27-1.35,17.6,17.6,0,0,0-19.57,0l-6.51,4.35a15.69,15.69,0,0,1-17.42,0L50.38,99.9a17.6,17.6,0,0,0-19.57,0l-6.51,4.35a15.65,15.65,0,0,1-17.42,0L.37,99.9A1,1,0,0,0,0,99.76V102Z"/><path class="cls-10" d="M5.8,95.91a17.62,17.62,0,0,0,19.58,0l6.51-4.34a15.65,15.65,0,0,1,17.42,0l6.51,4.34a17.6,17.6,0,0,0,19.57,0l6.52-4.34a15.65,15.65,0,0,1,17.42,0A1,1,0,0,0,100.4,90a17.6,17.6,0,0,0-19.57,0l-6.51,4.34a15.65,15.65,0,0,1-17.42,0L50.38,90a17.6,17.6,0,0,0-19.57,0L24.3,94.29a15.65,15.65,0,0,1-17.42,0L.37,90A.91.91,0,0,0,0,89.8V92Z"/><path class="cls-10" d="M5.8,86a17.62,17.62,0,0,0,19.58,0l6.51-4.34a15.65,15.65,0,0,1,17.42,0L55.82,86a17.6,17.6,0,0,0,19.57,0l6.52-4.34a15.65,15.65,0,0,1,17.42,0A1,1,0,0,0,100.4,80a17.6,17.6,0,0,0-19.57,0l-6.51,4.34a15.65,15.65,0,0,1-17.42,0L50.38,80a17.6,17.6,0,0,0-19.57,0L24.3,84.33a15.65,15.65,0,0,1-17.42,0L.37,80A.89.89,0,0,0,0,79.85v2.23Z"/><path class="cls-10" d="M5.8,76a17.57,17.57,0,0,0,19.58,0l6.51-4.34a15.65,15.65,0,0,1,17.42,0L55.82,76a17.57,17.57,0,0,0,19.57,0l6.52-4.34a15.65,15.65,0,0,1,17.42,0,1,1,0,0,0,1.34-.27A1,1,0,0,0,100.4,70a17.6,17.6,0,0,0-19.57,0l-6.51,4.35a15.69,15.69,0,0,1-17.42,0L50.39,70a17.62,17.62,0,0,0-19.58,0L24.3,74.38a15.67,15.67,0,0,1-17.42,0L.37,70A1,1,0,0,0,0,69.89v2.24Z"/><path class="cls-10" d="M5.8,66a17.62,17.62,0,0,0,19.58,0l6.51-4.35a15.69,15.69,0,0,1,17.42,0L55.82,66a17.6,17.6,0,0,0,19.57,0l6.52-4.35a15.69,15.69,0,0,1,17.42,0,1,1,0,1,0,1.07-1.61,17.57,17.57,0,0,0-19.57,0l-6.51,4.34a15.65,15.65,0,0,1-17.42,0l-6.52-4.34a17.59,17.59,0,0,0-19.57,0L24.3,64.42a15.65,15.65,0,0,1-17.42,0L.37,60.08A.91.91,0,0,0,0,59.93v2.24Z"/><path class="cls-10" d="M5.8,56.08a17.62,17.62,0,0,0,19.58,0l6.51-4.34a15.65,15.65,0,0,1,17.42,0l6.51,4.34a17.6,17.6,0,0,0,19.57,0l6.52-4.34a15.65,15.65,0,0,1,17.42,0,1,1,0,0,0,1.07-1.62,17.6,17.6,0,0,0-19.57,0l-6.51,4.34a15.65,15.65,0,0,1-17.42,0l-6.52-4.34a17.6,17.6,0,0,0-19.57,0L24.3,54.46a15.65,15.65,0,0,1-17.42,0L.37,50.12A.89.89,0,0,0,0,50v2.23Z"/><path class="cls-10" d="M5.8,46.12a17.57,17.57,0,0,0,19.58,0l6.51-4.34a15.65,15.65,0,0,1,17.42,0l6.51,4.34a17.57,17.57,0,0,0,19.57,0l6.52-4.34a15.65,15.65,0,0,1,17.42,0,1,1,0,0,0,1.34-.27,1,1,0,0,0-.27-1.35,17.6,17.6,0,0,0-19.57,0l-6.51,4.35a15.69,15.69,0,0,1-17.42,0l-6.52-4.35a17.6,17.6,0,0,0-19.57,0L24.3,44.51a15.69,15.69,0,0,1-17.42,0L.37,40.16A1,1,0,0,0,0,40v2.24Z"/><path class="cls-10" d="M5.8,36.17a17.62,17.62,0,0,0,19.58,0l6.51-4.35a15.69,15.69,0,0,1,17.42,0l6.51,4.35a17.6,17.6,0,0,0,19.57,0l6.52-4.35a15.67,15.67,0,0,1,17.42,0,1,1,0,1,0,1.07-1.61,17.57,17.57,0,0,0-19.57,0l-6.51,4.34a15.65,15.65,0,0,1-17.42,0l-6.51-4.34a17.58,17.58,0,0,0-19.58,0L24.3,34.55a15.65,15.65,0,0,1-17.42,0L.37,30.21A.91.91,0,0,0,0,30.06V32.3Z"/><path class="cls-10" d="M5.8,26.21a17.62,17.62,0,0,0,19.58,0l6.51-4.34a15.65,15.65,0,0,1,17.42,0l6.51,4.34a17.6,17.6,0,0,0,19.57,0l6.52-4.34a15.65,15.65,0,0,1,17.42,0,1,1,0,0,0,1.07-1.62,17.6,17.6,0,0,0-19.57,0l-6.51,4.34a15.65,15.65,0,0,1-17.42,0l-6.52-4.34a17.6,17.6,0,0,0-19.57,0L24.3,24.59a15.65,15.65,0,0,1-17.42,0L.37,20.25A1.07,1.07,0,0,0,0,20.1v2.24Z"/><path class="cls-10" d="M5.8,16.25a17.64,17.64,0,0,0,9.79,3,17.66,17.66,0,0,0,9.79-3l6.51-4.34a15.65,15.65,0,0,1,17.42,0l6.51,4.34a17.57,17.57,0,0,0,19.57,0l6.52-4.34a15.65,15.65,0,0,1,17.42,0,1,1,0,0,0,1.34-.27,1,1,0,0,0-.27-1.35,17.6,17.6,0,0,0-19.57,0l-6.51,4.35a15.69,15.69,0,0,1-17.42,0l-6.52-4.35a17.6,17.6,0,0,0-19.57,0L24.3,14.64a15.69,15.69,0,0,1-17.42,0L.37,10.29A1,1,0,0,0,0,10.15v2.24Z"/><path class="cls-10" d="M99.33,2a1,1,0,0,0,1.34-.27A1,1,0,0,0,100.4.34c-.09-.07-.19-.12-.28-.18H95.68A16,16,0,0,1,99.33,2Z"/><path class="cls-10" d="M30.81.34,24.3,4.68a15.65,15.65,0,0,1-17.42,0L.37.34A.91.91,0,0,0,0,.19V2.43L5.8,6.3a17.63,17.63,0,0,0,9.79,3,17.65,17.65,0,0,0,9.79-3L31.89,2A15.84,15.84,0,0,1,35.54.16H31.1A2.82,2.82,0,0,0,30.81.34Z"/><path class="cls-10" d="M80.83.34,74.32,4.68a15.65,15.65,0,0,1-17.42,0L50.38.34c-.09-.07-.19-.12-.28-.18H45.66A15.84,15.84,0,0,1,49.31,2L55.82,6.3a17.6,17.6,0,0,0,19.57,0L81.91,2A15.84,15.84,0,0,1,85.56.16H81.12A2.82,2.82,0,0,0,80.83.34Z"/></g><g class="cls-11"><path class="cls-12" d="M196.6,25a3.57,3.57,0,0,1-1.94,4.67,12.55,12.55,0,0,1-16.36-6.82,3.58,3.58,0,1,1,6.62-2.72,5.37,5.37,0,0,0,7,2.92A3.58,3.58,0,0,1,196.6,25Z"/><path class="cls-12" d="M160.7,24.13a3.58,3.58,0,0,1-4.35-2.59A12.54,12.54,0,0,1,165.4,6.3a3.58,3.58,0,0,1,1.76,6.94,5.36,5.36,0,0,0-3.87,6.53A3.59,3.59,0,0,1,160.7,24.13Z"/><path class="cls-12" d="M174.72,25.94a12.53,12.53,0,0,1-23.18,9.53,3.58,3.58,0,1,1,6.62-2.72,5.37,5.37,0,0,0,9.94-4.09,3.58,3.58,0,1,1,6.62-2.72Z"/><path class="cls-12" d="M144.59,27.82a3.57,3.57,0,0,1-4.84,1.47,12.55,12.55,0,0,1-5.14-17,3.58,3.58,0,1,1,6.32,3.38,5.38,5.38,0,0,0,2.2,7.27A3.57,3.57,0,0,1,144.59,27.82Z"/><path class="cls-12" d="M191.36.16l-.09.28a5.37,5.37,0,1,0,10,3.76A3.58,3.58,0,0,1,208,6.72,12.53,12.53,0,0,1,184,.16"/><path class="cls-12" d="M141.08,56.19a3.59,3.59,0,0,0,.71-5,12.54,12.54,0,0,0-17.55-2.47,3.58,3.58,0,0,0,4.31,5.72,5.37,5.37,0,0,1,7.52,1.06A3.58,3.58,0,0,0,141.08,56.19Z"/><path class="cls-12" d="M109.74,38.66a3.59,3.59,0,0,0-5.07,0,12.54,12.54,0,0,0,0,17.72,3.58,3.58,0,0,0,5.06-5.07,5.37,5.37,0,0,1,0-7.59A3.58,3.58,0,0,0,109.74,38.66Z"/><path class="cls-12" d="M122.72,44.24a12.53,12.53,0,1,0-15.08-20A3.58,3.58,0,0,0,112,30a5.37,5.37,0,1,1,6.46,8.57,3.58,3.58,0,0,0,4.31,5.72Z"/><path class="cls-12" d="M97.77,27.26a3.59,3.59,0,0,0-3.42-3.73,12.54,12.54,0,0,0-13.07,12,3.58,3.58,0,1,0,7.15.32A5.38,5.38,0,0,1,94,30.69,3.59,3.59,0,0,0,97.77,27.26Z"/><path class="cls-12" d="M141.58,77.77a12.54,12.54,0,0,0-24.68-4.41,3.58,3.58,0,1,0,7,1.26,5.37,5.37,0,0,1,10.58,1.89,3.58,3.58,0,0,0,7.05,1.26Z"/><path class="cls-12" d="M150.35,49.05a3.58,3.58,0,0,1,5-.68,12.54,12.54,0,0,1,2.38,17.56,3.58,3.58,0,0,1-5.7-4.33,5.37,5.37,0,0,0-1-7.53A3.59,3.59,0,0,1,150.35,49.05Z"/><path class="cls-12" d="M235.05,51.87a3.58,3.58,0,0,1,2.64,4.32,12.53,12.53,0,0,1-15.1,9.26,3.58,3.58,0,1,1,1.67-7,5.37,5.37,0,0,0,6.47-4A3.59,3.59,0,0,1,235.05,51.87Z"/></g><path class="cls-5" d="M43.42,179.44a20.53,20.53,0,0,0-34.49-3.55l35,20.72A20.45,20.45,0,0,0,43.42,179.44Z"/><path class="cls-6" d="M77,216.19,64.9,130.55,0,139.71v25.61a34.18,34.18,0,0,1,55.75,38.29Z"/><path class="cls-7" d="M43.92,196.61a20.51,20.51,0,1,1-35-20.72L0,170.61v41.23a34.18,34.18,0,0,0,55.75-8.23Z"/><polygon class="cls-13" points="137.98 49.65 286.12 87.57 160.35 193.49 137.98 49.65"/><polygon class="cls-14" points="182.87 93.09 190.4 142.44 114.25 164.13 182.87 93.09"/><g class="cls-9"><path class="cls-10" d="M351.8,235.91a15.6,15.6,0,0,1,8.93,0h4.73a17.59,17.59,0,0,0-18.39,0Z"/><path class="cls-10" d="M301.78,235.91a15.6,15.6,0,0,1,8.93,0h4.73a17.59,17.59,0,0,0-18.39,0Z"/><path class="cls-10" d="M390,230.66a15.65,15.65,0,0,1-17.42,0l-6.51-4.34a17.6,17.6,0,0,0-19.57,0L340,230.66a15.65,15.65,0,0,1-17.42,0L316,226.32a17.6,17.6,0,0,0-19.57,0,1,1,0,0,0,1.07,1.62,15.65,15.65,0,0,1,17.42,0l6.52,4.34a17.6,17.6,0,0,0,19.57,0l6.51-4.34a15.65,15.65,0,0,1,17.42,0l6.52,4.34a17.6,17.6,0,0,0,19.57,0L396,229v-2.34Z"/><path class="cls-10" d="M390,220.71a15.69,15.69,0,0,1-17.42,0l-6.51-4.35a17.6,17.6,0,0,0-19.57,0L340,220.71a15.69,15.69,0,0,1-17.42,0L316,216.36a17.6,17.6,0,0,0-19.57,0,1,1,0,0,0-.27,1.35,1,1,0,0,0,1.34.27A15.65,15.65,0,0,1,315,218l6.52,4.34a17.55,17.55,0,0,0,19.57,0l6.51-4.34A15.65,15.65,0,0,1,365,218l6.52,4.34a17.57,17.57,0,0,0,19.57,0L396,219v-2.34Z"/><path class="cls-10" d="M390,210.75a15.65,15.65,0,0,1-17.42,0l-6.51-4.34a17.57,17.57,0,0,0-19.57,0L340,210.75a15.65,15.65,0,0,1-17.42,0L316,206.41a17.57,17.57,0,0,0-19.57,0,1,1,0,0,0,1.07,1.61A15.69,15.69,0,0,1,315,208l6.52,4.35a17.6,17.6,0,0,0,19.57,0l6.51-4.35A15.69,15.69,0,0,1,365,208l6.52,4.35a17.6,17.6,0,0,0,19.57,0l4.94-3.3v-2.33Z"/><path class="cls-10" d="M390,200.79a15.65,15.65,0,0,1-17.42,0l-6.51-4.34a17.6,17.6,0,0,0-19.57,0L340,200.79a15.65,15.65,0,0,1-17.42,0L316,196.45a17.6,17.6,0,0,0-19.57,0,1,1,0,0,0,1.07,1.62,15.65,15.65,0,0,1,17.42,0l6.52,4.34a17.6,17.6,0,0,0,19.57,0l6.51-4.34a15.65,15.65,0,0,1,17.42,0l6.52,4.34a17.6,17.6,0,0,0,19.57,0l4.94-3.29v-2.34Z"/><path class="cls-10" d="M390,190.84a15.69,15.69,0,0,1-17.42,0l-6.51-4.35a17.6,17.6,0,0,0-19.57,0L340,190.84a15.69,15.69,0,0,1-17.42,0L316,186.49a17.6,17.6,0,0,0-19.57,0,1,1,0,0,0-.27,1.35,1,1,0,0,0,1.34.27,15.65,15.65,0,0,1,17.42,0l6.52,4.34a17.55,17.55,0,0,0,19.57,0l6.51-4.34a15.65,15.65,0,0,1,17.42,0l6.52,4.34a17.57,17.57,0,0,0,19.57,0l4.94-3.29v-2.34Z"/><path class="cls-10" d="M390,180.88a15.65,15.65,0,0,1-17.42,0l-6.51-4.34a17.57,17.57,0,0,0-19.57,0L340,180.88a15.65,15.65,0,0,1-17.42,0L316,176.54a17.57,17.57,0,0,0-19.57,0,1,1,0,0,0,1.07,1.61,15.69,15.69,0,0,1,17.42,0l6.52,4.35a17.6,17.6,0,0,0,19.57,0l6.51-4.35a15.67,15.67,0,0,1,17.42,0l6.52,4.35a17.6,17.6,0,0,0,19.57,0l4.94-3.3v-2.33Z"/><path class="cls-10" d="M390,170.92a15.65,15.65,0,0,1-17.42,0l-6.51-4.34a17.6,17.6,0,0,0-19.57,0L340,170.92a15.65,15.65,0,0,1-17.42,0L316,166.58a17.6,17.6,0,0,0-19.57,0,1,1,0,0,0,1.07,1.62,15.65,15.65,0,0,1,17.42,0l6.52,4.34a17.6,17.6,0,0,0,19.57,0l6.51-4.34a15.65,15.65,0,0,1,17.42,0l6.52,4.34a17.6,17.6,0,0,0,19.57,0l4.94-3.29v-2.34Z"/><path class="cls-10" d="M390,161a15.65,15.65,0,0,1-17.42,0l-6.51-4.34a17.6,17.6,0,0,0-19.57,0L340,161a15.65,15.65,0,0,1-17.42,0L316,156.62a17.6,17.6,0,0,0-19.57,0,1,1,0,0,0-.27,1.35,1,1,0,0,0,1.34.27,15.65,15.65,0,0,1,17.42,0l6.52,4.34a17.6,17.6,0,0,0,19.57,0l6.51-4.34a15.65,15.65,0,0,1,17.42,0l6.52,4.34a17.57,17.57,0,0,0,19.57,0l4.94-3.29V157Z"/><path class="cls-10" d="M390,151a15.65,15.65,0,0,1-17.42,0l-6.51-4.34a17.57,17.57,0,0,0-19.57,0L340,151a15.65,15.65,0,0,1-17.42,0L316,146.67a17.57,17.57,0,0,0-19.57,0,1,1,0,0,0,1.07,1.61,15.65,15.65,0,0,1,17.42,0l6.52,4.35a17.6,17.6,0,0,0,19.57,0l6.51-4.35a15.67,15.67,0,0,1,17.42,0l6.52,4.35a17.6,17.6,0,0,0,19.57,0l4.94-3.3V147Z"/><path class="cls-10" d="M390,141.05a15.65,15.65,0,0,1-17.42,0l-6.51-4.34a17.6,17.6,0,0,0-19.57,0L340,141.05a15.65,15.65,0,0,1-17.42,0L316,136.71a17.6,17.6,0,0,0-19.57,0,1,1,0,0,0,1.07,1.62,15.65,15.65,0,0,1,17.42,0l6.52,4.34a17.6,17.6,0,0,0,19.57,0l6.51-4.34a15.65,15.65,0,0,1,17.42,0l6.52,4.34a17.6,17.6,0,0,0,19.57,0l4.94-3.29V137Z"/><path class="cls-10" d="M390,131.09a15.65,15.65,0,0,1-17.42,0l-6.51-4.34a17.6,17.6,0,0,0-19.57,0L340,131.09a15.65,15.65,0,0,1-17.42,0L316,126.75a17.6,17.6,0,0,0-19.57,0,1,1,0,0,0-.27,1.35,1,1,0,0,0,1.34.27,15.65,15.65,0,0,1,17.42,0l6.52,4.34a17.6,17.6,0,0,0,19.57,0l6.51-4.34a15.65,15.65,0,0,1,17.42,0l6.52,4.34a17.6,17.6,0,0,0,19.57,0l4.94-3.29v-2.34Z"/><path class="cls-10" d="M390,121.14a15.65,15.65,0,0,1-17.42,0l-6.51-4.34a17.57,17.57,0,0,0-19.57,0L340,121.14a15.65,15.65,0,0,1-17.42,0L316,116.8a17.57,17.57,0,0,0-19.57,0,1,1,0,1,0,1.07,1.61,15.69,15.69,0,0,1,17.42,0l6.52,4.34a17.55,17.55,0,0,0,19.57,0l6.51-4.34a15.67,15.67,0,0,1,17.42,0l6.52,4.34a17.57,17.57,0,0,0,19.57,0l4.94-3.29v-2.33Z"/></g><g class="cls-11"><path class="cls-12" d="M300.06,150a3.57,3.57,0,0,1-5,.67,12.55,12.55,0,0,1-2.36-17.57,3.58,3.58,0,1,1,5.69,4.35,5.39,5.39,0,0,0,1,7.53A3.58,3.58,0,0,1,300.06,150Z"/><path class="cls-12" d="M262.89,176.84a3.58,3.58,0,0,1-.15,5.06,12.54,12.54,0,0,1-17.71-.5,3.58,3.58,0,0,1,5.2-4.92,5.38,5.38,0,0,0,7.59.22A3.59,3.59,0,0,1,262.89,176.84Z"/><path class="cls-12" d="M226.06,210.67a3.57,3.57,0,0,1,2.44-4.43A12.55,12.55,0,0,1,244,214.8a3.58,3.58,0,1,1-6.88,2,5.38,5.38,0,0,0-6.65-3.67A3.58,3.58,0,0,1,226.06,210.67Z"/><path class="cls-12" d="M261.65,215.48a3.59,3.59,0,0,1,4.05,3.05A12.56,12.56,0,0,1,255,232.69a3.58,3.58,0,1,1-1-7.09,5.39,5.39,0,0,0,4.57-6.07A3.58,3.58,0,0,1,261.65,215.48Z"/><path class="cls-12" d="M247.91,212.15a12.53,12.53,0,0,1,24.08-7,3.58,3.58,0,0,1-6.88,2,5.37,5.37,0,0,0-10.32,3,3.58,3.58,0,1,1-6.88,2Z"/><path class="cls-12" d="M278.06,213.56a3.58,3.58,0,0,1,5-.93,12.55,12.55,0,0,1,3.26,17.42,3.58,3.58,0,0,1-5.91-4.05,5.37,5.37,0,0,0-1.4-7.46A3.58,3.58,0,0,1,278.06,213.56Z"/><path class="cls-12" d="M278.37,182.1a3.58,3.58,0,0,0-1.25,4.91,12.55,12.55,0,0,0,17.18,4.37,3.58,3.58,0,0,0-3.66-6.16,5.38,5.38,0,0,1-7.36-1.87A3.58,3.58,0,0,0,278.37,182.1Z"/><path class="cls-12" d="M307.62,202.94a3.59,3.59,0,0,0,5,.55,12.55,12.55,0,0,0,1.91-17.62,3.58,3.58,0,1,0-5.58,4.49,5.37,5.37,0,0,1-.82,7.55A3.58,3.58,0,0,0,307.62,202.94Z"/><path class="cls-12" d="M295.33,196a12.53,12.53,0,1,0,12.8,21.54,3.58,3.58,0,1,0-3.66-6.15,5.37,5.37,0,1,1-5.49-9.23,3.58,3.58,0,0,0-3.65-6.16Z"/><path class="cls-12" d="M318.28,215.57a3.58,3.58,0,0,0,3,4.08,12.56,12.56,0,0,0,14.3-10.48,3.58,3.58,0,0,0-7.08-1.09,5.37,5.37,0,0,1-6.13,4.49A3.58,3.58,0,0,0,318.28,215.57Z"/><path class="cls-12" d="M280.23,160.6a12.53,12.53,0,0,0,24,7.06,3.58,3.58,0,0,0-6.87-2,5.37,5.37,0,1,1-10.31-3,3.58,3.58,0,1,0-6.87-2Z"/><path class="cls-12" d="M140.73,195.45a3.59,3.59,0,0,1-3.12,4,12.54,12.54,0,0,1-14-10.9,3.58,3.58,0,1,1,7.1-.88,5.38,5.38,0,0,0,6,4.67A3.59,3.59,0,0,1,140.73,195.45Z"/><path class="cls-12" d="M371.48,169.56a3.58,3.58,0,0,1,5-.68,12.54,12.54,0,0,1,2.38,17.56,3.58,3.58,0,0,1-5.7-4.33,5.37,5.37,0,0,0-1-7.53A3.59,3.59,0,0,1,371.48,169.56Z"/><path class="cls-15" d="M228.24,235.48a3.28,3.28,0,0,0-.2.52h1.06l0-.07a5.87,5.87,0,1,0-10.48-5.29,3.08,3.08,0,1,1-5.5-2.78,12,12,0,0,1,16.16-5.32,12.14,12.14,0,0,1,6.3,13.46h1a13.13,13.13,0,0,0-6.87-14.35,13,13,0,0,0-17.5,5.76,4.08,4.08,0,0,0,4.92,5.71,4,4,0,0,0,2.36-2,4.87,4.87,0,1,1,8.7,4.39Z"/></g><path class="cls-16" d="M91.11,236c.61-.36,1.16-.73,1.31-1.22.23-.79-.74-1.94-1.5-3.66-1.34,1.33-2.66,2-2.73,2.88,0,.63.55,1.32,1.11,2Z"/></g></g></svg>